<?xml version="1.0" standalone="no"?>
<!DOCTYPE svg PUBLIC "-//W3C//DTD SVG 20010904//EN"
 "http://www.w3.org/TR/2001/REC-SVG-20010904/DTD/svg10.dtd">
<svg version="1.0" xmlns="http://www.w3.org/2000/svg"
 viewBox="0 0 863.000000 180.000000"
 preserveAspectRatio="xMidYMid meet">

<g transform="translate(0.000000,180.000000) scale(0.100000,-0.100000)"
fill="#000000" stroke="none">
<path d="M6370 1654 c-17 -15 -39 -43 -49 -63 -15 -29 -166 -396 -202 -490
l-10 -24 -27 26 c-38 36 -77 49 -149 49 -84 -1 -158 -35 -226 -105 -56 -57
-108 -146 -127 -216 -17 -65 -15 -180 5 -226 40 -97 108 -135 245 -135 83 0
100 3 139 25 l44 26 24 -23 c20 -19 38 -24 104 -27 121 -5 167 5 207 45 30 30
34 39 29 71 -10 58 -26 68 -123 72 -74 3 -85 5 -79 20 3 9 85 211 181 449 118
290 176 444 176 469 0 78 -97 111 -162 57z m-371 -689 c45 -23 44 -47 -5 -170
-35 -86 -51 -115 -70 -124 -28 -12 -103 -15 -120 -3 -74 49 -7 244 100 293 50
23 59 23 95 4z"/>
<path d="M1300 1663 c-41 -16 -65 -59 -155 -288 l-96 -242 -147 -6 c-235 -10
-421 -69 -570 -182 -303 -229 -335 -639 -63 -813 170 -109 402 -82 560 64 104
96 143 165 277 494 l92 225 113 5 c127 6 159 17 189 65 24 38 25 66 5 104 -19
37 -31 41 -131 41 -46 0 -84 3 -84 8 0 4 29 77 63 162 l64 155 224 5 c143 3
231 9 244 17 70 40 92 120 47 165 -22 23 -26 23 -320 25 -163 1 -304 -1 -312
-4z m-343 -755 c-50 -128 -145 -355 -164 -393 -39 -77 -91 -142 -138 -175
-195 -134 -391 43 -304 275 38 102 164 215 290 261 103 37 327 60 316 32z"/>
<path d="M7485 1368 c-44 -24 -66 -55 -101 -140 l-37 -88 -49 0 c-27 0 -62 -7
-78 -15 -46 -24 -71 -85 -54 -130 8 -19 55 -45 85 -45 13 0 19 -5 16 -12 -102
-244 -127 -314 -127 -351 0 -93 58 -120 243 -115 109 3 129 6 154 24 43 32 57
67 43 110 -15 44 -40 54 -132 54 -52 0 -69 3 -65 13 3 6 29 72 58 145 l52 132
52 0 c102 0 178 64 158 134 -10 36 -43 56 -95 56 -21 0 -38 2 -38 4 0 2 11 28
25 58 33 71 33 122 -1 153 -29 27 -75 32 -109 13z"/>
<path d="M2662 1240 c-12 -12 -30 -37 -41 -58 -37 -75 -121 -301 -121 -326 0
-37 44 -76 86 -76 47 0 88 39 116 110 l23 60 44 0 44 0 -27 -32 c-63 -78 -105
-167 -106 -224 0 -54 28 -128 62 -161 54 -52 93 -63 227 -63 173 0 231 29 231
113 0 58 -25 71 -150 77 -123 6 -150 19 -150 75 0 58 121 215 166 215 32 0 75
18 102 42 16 16 22 33 22 62 0 78 -20 86 -204 86 -133 0 -148 2 -166 20 -11
11 -20 26 -20 34 0 7 -9 25 -21 40 -26 33 -84 36 -117 6z"/>
<path d="M3395 1238 c-16 -15 -48 -78 -89 -178 -84 -205 -85 -212 -48 -250 62
-62 130 -32 178 80 26 59 28 60 65 60 22 0 39 -2 39 -5 0 -3 -20 -32 -44 -65
-63 -85 -80 -135 -73 -216 6 -82 41 -138 107 -171 39 -20 60 -23 165 -23 66 0
136 5 156 10 52 14 84 53 84 100 0 65 -18 74 -150 80 -130 6 -150 16 -148 73
1 47 27 92 90 158 45 48 61 58 99 64 60 9 94 39 101 92 5 35 2 45 -20 67 -26
26 -28 26 -181 26 -169 0 -178 3 -191 60 -13 59 -91 80 -140 38z"/>
<path d="M1978 1146 c-72 -15 -154 -71 -206 -139 -75 -98 -102 -174 -102 -288
0 -96 33 -169 98 -214 39 -27 52 -30 141 -33 84 -4 103 -1 139 17 22 11 44 26
47 32 5 7 18 0 37 -18 26 -25 38 -28 109 -32 113 -5 162 5 199 39 24 22 30 36
30 68 0 61 -32 82 -126 82 -41 0 -74 2 -74 5 0 3 32 85 71 182 40 101 71 193
71 213 0 88 -129 110 -188 31 -10 -13 -16 -10 -43 16 -43 44 -117 58 -203 39z
m116 -176 c51 -19 52 -46 6 -163 -49 -125 -69 -147 -141 -147 -41 0 -51 4 -65
26 -49 75 20 236 120 280 38 16 48 17 80 4z"/>
<path d="M4324 1150 c-191 -27 -344 -207 -344 -403 0 -80 21 -143 66 -195 52
-61 104 -77 249 -77 104 1 126 4 167 24 63 31 133 107 171 189 40 86 50 215
22 289 -48 126 -179 194 -331 173z m106 -205 c51 -46 46 -147 -11 -224 -33
-46 -87 -67 -142 -57 -55 10 -78 35 -84 89 -12 104 90 225 180 214 21 -3 47
-13 57 -22z"/>
<path d="M5048 1150 c-106 -18 -218 -112 -277 -233 -74 -151 -61 -312 32 -394
48 -42 102 -56 202 -51 69 2 88 7 123 31 23 15 42 23 42 17 0 -6 15 -19 33
-30 25 -16 50 -20 117 -20 140 0 194 27 207 103 4 29 1 40 -20 61 -23 23 -34
26 -102 26 -43 0 -75 4 -75 10 0 5 32 89 70 185 39 96 70 189 70 206 0 19 -9
39 -26 56 -22 22 -32 25 -75 21 -36 -4 -58 -13 -78 -32 l-28 -26 -19 21 c-40
45 -112 62 -196 49z m112 -185 c40 -21 39 -52 -6 -165 -46 -114 -59 -130 -111
-137 -61 -8 -89 2 -103 37 -33 80 31 215 125 264 38 20 58 20 95 1z"/>
<path d="M6743 1150 c-159 -23 -301 -179 -321 -351 -17 -149 22 -242 123 -294
58 -30 61 -30 238 -33 99 -2 195 -1 213 3 43 8 90 48 97 81 7 39 -12 84 -40
95 -13 5 -93 9 -176 9 -158 0 -224 9 -238 32 -22 34 -11 38 114 38 67 0 139 5
160 11 44 12 101 59 124 103 25 47 22 142 -5 194 -26 49 -96 99 -151 108 -71
11 -87 12 -138 4z m105 -212 c4 -37 -24 -49 -109 -46 l-70 3 28 33 c47 56 145
62 151 10z"/>
<path d="M7998 1150 c-147 -25 -290 -187 -319 -360 -20 -119 5 -206 75 -268
49 -42 97 -55 197 -50 71 3 91 8 127 31 23 15 42 23 42 17 0 -6 15 -19 33 -30
26 -16 50 -20 125 -20 138 0 197 33 197 111 0 59 -20 73 -119 79 l-83 5 73
180 c40 99 73 194 74 211 1 81 -105 114 -173 54 l-34 -29 -23 24 c-37 40 -116
58 -192 45z m125 -197 c25 -24 20 -57 -26 -168 -46 -110 -62 -125 -134 -125
-33 0 -46 5 -63 28 -42 52 -9 172 68 245 50 48 114 56 155 20z"/>
</g>
</svg>